<svg xmlns="http://www.w3.org/2000/svg" viewBox="0 0 100 100">
    <path fill="red" d="m8.44388,72.186002l59.79,0a5.46,5.46 0 0 0 4.58,-8.41l-29.85,-46.28a5.45,5.45 0 0 0 -9.16,0l-29.93,46.28a5.45,5.45 0 0 0 4.57,8.41z" opacity="0.7"/>
    <path fill="yellow" d="m20.93,78.176003l58.6,0a6.09,6.09 0 0 0 5.12,-9.4l-29.2,-45.28a5.45,5.45 0 0 0 -9.16,0l-29.93,46.27a5.45,5.45 0 0 0 4.57,8.41z" opacity="0.7"/>
    <path fill="#00d2e4" d="m32.443882,84.176l58.6,0a6.09,6.09 0 0 0 5.12,-9.4l-29.2,-45.28a5.45,5.45 0 0 0 -9.16,0l-29.93,46.27a5.45,5.45 0 0 0 4.57,8.41z" opacity="0.7"/>
</svg>
